# MagicaVoxel @ Ephtracy

# group
o 

# material
mtllib player_hiroppe.vox.mtl
usemtl palette

# normals
vn -1 0 0
vn 1 0 0
vn 0 0 1
vn 0 0 -1
vn 0 -1 0
vn 0 1 0

# texcoords
vt 0.0292969 0.5
vt 0.130859 0.5
vt 0.263672 0.5
vt 0.275391 0.5
vt 0.873047 0.5
vt 0.916016 0.5
vt 0.962891 0.5
vt 0.994141 0.5

# verts
v -1.4 1.6 0.4
v -1.4 1.6 -0.2
v -1.4 2 0.4
v -1.4 2 -0.2
v -0.6 2.3 0.8
v -0.6 2.3 -0.2
v -0.6 2.3 -0.9
v -0.6 2.6 0.8
v -0.6 2.6 0.4
v -0.6 2.6 0.1
v -0.6 2.6 -0.2
v -0.6 2.9 0.8
v -0.6 2.9 0.4
v -0.6 3 0.8
v -0.6 3 0.1
v -0.6 3.9 0.8
v -0.6 3.9 -0.9
v -0.4 0 0.4
v -0.4 0 -0.2
v -0.4 0.3 0.4
v -0.4 0.3 -0.2
v -0.4 0.9 0.8
v -0.4 0.9 0.4
v -0.4 0.9 -0.2
v -0.4 0.9 -0.5
v -0.4 1.6 0.4
v -0.4 1.6 -0.2
v -0.4 2 0.8
v -0.4 2 0.4
v -0.4 2 -0.2
v -0.4 2 -0.5
v 0 2 0.4
v 0 2 -0.2
v 0 2.3 0.4
v 0 2.3 -0.2
v 0.3 0 0.4
v 0.3 0 -0.2
v 0.3 0.3 0.4
v 0.3 0.3 -0.2
v 0.3 0.9 0.4
v 0.3 0.9 -0.2
v 0 0 0.4
v 0 0 -0.2
v 0 0.3 0.4
v 0 0.3 -0.2
v 0 0.9 0.4
v 0 0.9 -0.2
v 0.3 2 0.4
v 0.3 2 -0.2
v 0.3 2.3 0.4
v 0.3 2.3 -0.2
v 0.7 0 0.4
v 0.7 0 -0.2
v 0.7 0.3 0.4
v 0.7 0.3 -0.2
v 0.7 0.9 0.8
v 0.7 0.9 0.4
v 0.7 0.9 -0.2
v 0.7 0.9 -0.5
v 0.7 1.6 0.4
v 0.7 1.6 -0.2
v 0.7 2 0.8
v 0.7 2 0.4
v 0.7 2 -0.2
v 0.7 2 -0.5
v 0.8 2.3 0.8
v 0.8 2.3 -0.2
v 0.8 2.3 -0.9
v 0.8 2.6 0.8
v 0.8 2.6 0.4
v 0.8 2.6 0.1
v 0.8 2.6 -0.2
v 0.8 2.9 0.8
v 0.8 2.9 0.4
v 0.8 3 0.8
v 0.8 3 0.1
v 0.8 3.9 0.8
v 0.8 3.9 -0.9
v 1.7 1.6 0.4
v 1.7 1.6 -0.2
v 1.7 2 0.4
v 1.7 2 -0.2
v -0.6 2.3 0.8
v -0.6 2.6 0.8
v -0.6 2.9 0.8
v -0.6 3 0.8
v -0.6 3.9 0.8
v -0.4 0.9 0.8
v -0.4 2 0.8
v -0.4 2.9 0.8
v -0.4 3 0.8
v -0.4 3.3 0.8
v -0.4 3.5 0.8
v -0.3 2.6 0.8
v -0.3 2.9 0.8
v -0.3 3 0.8
v -0.3 3.3 0.8
v -0.3 3.5 0.8
v -0.3 3.6 0.8
v 0 2.5 0.8
v 0 2.6 0.8
v 0 2.9 0.8
v 0 3.3 0.8
v 0 3.5 0.8
v 0 3.6 0.8
v 0.1 3.5 0.8
v 0.1 3.6 0.8
v 0.3 2.5 0.8
v 0.3 2.6 0.8
v 0.3 2.9 0.8
v 0.3 3 0.8
v 0.3 3.3 0.8
v 0.3 3.5 0.8
v 0.3 3.6 0.8
v 0.4 2.6 0.8
v 0.4 2.9 0.8
v 0.4 3 0.8
v 0.4 3.3 0.8
v 0.7 0.9 0.8
v 0.7 2 0.8
v 0.7 2.9 0.8
v 0.7 3 0.8
v 0.7 3.3 0.8
v 0.7 3.5 0.8
v 0.8 2.3 0.8
v 0.8 2.6 0.8
v 0.8 2.9 0.8
v 0.8 3 0.8
v 0.8 3.9 0.8
v -1.4 1.6 0.4
v -1.4 2 0.4
v -1.3 1.6 0.4
v -1.3 2 0.4
v -0.4 0 0.4
v -0.4 0.3 0.4
v -0.4 0.9 0.4
v -0.4 1.6 0.4
v -0.4 2 0.4
v 0 0 0.4
v 0 0.3 0.4
v 0 0.9 0.4
v 0 2 0.4
v 0 2.3 0.4
v 0.3 0 0.4
v 0.3 0.3 0.4
v 0.3 0.9 0.4
v 0.3 2 0.4
v 0.3 2.3 0.4
v 0.7 0 0.4
v 0.7 0.3 0.4
v 0.7 0.9 0.4
v 0.7 1.6 0.4
v 0.7 2 0.4
v 1.5 1.6 0.4
v 1.5 2 0.4
v 1.7 1.6 0.4
v 1.7 2 0.4
v -1.4 1.6 -0.2
v -1.4 2 -0.2
v -1.3 1.6 -0.2
v -1.3 2 -0.2
v -0.4 0 -0.2
v -0.4 0.3 -0.2
v -0.4 0.9 -0.2
v -0.4 1.6 -0.2
v -0.4 2 -0.2
v 0 0 -0.2
v 0 0.3 -0.2
v 0 0.9 -0.2
v 0 2 -0.2
v 0 2.3 -0.2
v 0.3 0 -0.2
v 0.3 0.3 -0.2
v 0.3 0.9 -0.2
v 0.3 2 -0.2
v 0.3 2.3 -0.2
v 0.7 0 -0.2
v 0.7 0.3 -0.2
v 0.7 0.9 -0.2
v 0.7 1.6 -0.2
v 0.7 2 -0.2
v 1.5 1.6 -0.2
v 1.5 2 -0.2
v 1.7 1.6 -0.2
v 1.7 2 -0.2
v -0.4 0.9 -0.5
v -0.4 2 -0.5
v 0.7 0.9 -0.5
v 0.7 2 -0.5
v -0.6 2.3 -0.9
v -0.6 3.9 -0.9
v 0.8 2.3 -0.9
v 0.8 3.9 -0.9
v -0.4 0 0.4
v 0 0 0.4
v 0.3 0 0.4
v 0.7 0 0.4
v -0.4 0 -0.2
v 0 0 -0.2
v 0.3 0 -0.2
v 0.7 0 -0.2
v -0.4 0.9 0.8
v 0.7 0.9 0.8
v -0.4 0.9 0.4
v 0 0.9 0.4
v 0.3 0.9 0.4
v 0.7 0.9 0.4
v -0.4 0.9 -0.2
v 0 0.9 -0.2
v 0.3 0.9 -0.2
v 0.7 0.9 -0.2
v -0.4 0.9 -0.5
v 0.7 0.9 -0.5
v -1.4 1.6 0.4
v -1.3 1.6 0.4
v -0.4 1.6 0.4
v 0.7 1.6 0.4
v 1.5 1.6 0.4
v 1.7 1.6 0.4
v -1.4 1.6 -0.2
v -1.3 1.6 -0.2
v -0.4 1.6 -0.2
v 0.7 1.6 -0.2
v 1.5 1.6 -0.2
v 1.7 1.6 -0.2
v -0.6 2.3 0.8
v 0.8 2.3 0.8
v 0 2.3 0.4
v 0.3 2.3 0.4
v -0.6 2.3 -0.2
v -0.4 2.3 -0.2
v 0 2.3 -0.2
v 0.3 2.3 -0.2
v 0.7 2.3 -0.2
v 0.8 2.3 -0.2
v -0.4 2.3 -0.5
v 0.7 2.3 -0.5
v -0.6 2.3 -0.9
v 0.8 2.3 -0.9
v -0.4 2 0.8
v 0.7 2 0.8
v -1.4 2 0.4
v -1.3 2 0.4
v -0.4 2 0.4
v 0 2 0.4
v 0.3 2 0.4
v 0.7 2 0.4
v 1.5 2 0.4
v 1.7 2 0.4
v -1.4 2 -0.2
v -1.3 2 -0.2
v -0.4 2 -0.2
v 0 2 -0.2
v 0.3 2 -0.2
v 0.7 2 -0.2
v 1.5 2 -0.2
v 1.7 2 -0.2
v -0.4 2 -0.5
v 0.7 2 -0.5
v -0.6 3.9 0.8
v 0.8 3.9 0.8
v -0.6 3.9 -0.9
v 0.8 3.9 -0.9

# faces
f 3/1/1 2/1/1 1/1/1
f 4/1/1 2/1/1 3/1/1
f 8/1/1 6/1/1 5/1/1
f 9/1/1 6/1/1 8/1/1
f 10/1/1 6/1/1 9/1/1
f 11/5/1 7/5/1 6/5/1
f 11/1/1 6/1/1 10/1/1
f 12/2/1 9/2/1 8/2/1
f 13/1/1 10/1/1 9/1/1
f 13/2/1 9/2/1 12/2/1
f 14/1/1 13/1/1 12/1/1
f 15/5/1 11/5/1 10/5/1
f 15/1/1 13/1/1 14/1/1
f 15/1/1 10/1/1 13/1/1
f 16/5/1 15/5/1 14/5/1
f 17/5/1 7/5/1 11/5/1
f 17/5/1 15/5/1 16/5/1
f 17/5/1 11/5/1 15/5/1
f 20/6/1 19/6/1 18/6/1
f 21/6/1 19/6/1 20/6/1
f 23/1/1 21/1/1 20/1/1
f 24/1/1 21/1/1 23/1/1
f 26/3/1 24/3/1 23/3/1
f 26/3/1 25/3/1 24/3/1
f 26/3/1 23/3/1 22/3/1
f 27/3/1 25/3/1 26/3/1
f 28/3/1 26/3/1 22/3/1
f 29/3/1 26/3/1 28/3/1
f 30/3/1 25/3/1 27/3/1
f 31/3/1 25/3/1 30/3/1
f 34/1/1 33/1/1 32/1/1
f 35/1/1 33/1/1 34/1/1
f 38/6/1 37/6/1 36/6/1
f 39/6/1 37/6/1 38/6/1
f 40/1/1 39/1/1 38/1/1
f 41/1/1 39/1/1 40/1/1
f 42/6/2 43/6/2 44/6/2
f 44/6/2 43/6/2 45/6/2
f 44/1/2 45/1/2 46/1/2
f 46/1/2 45/1/2 47/1/2
f 48/1/2 49/1/2 50/1/2
f 50/1/2 49/1/2 51/1/2
f 52/6/2 53/6/2 54/6/2
f 54/6/2 53/6/2 55/6/2
f 54/1/2 55/1/2 57/1/2
f 57/1/2 55/1/2 58/1/2
f 57/3/2 58/3/2 60/3/2
f 58/3/2 59/3/2 60/3/2
f 56/3/2 57/3/2 60/3/2
f 60/3/2 59/3/2 61/3/2
f 56/3/2 60/3/2 62/3/2
f 62/3/2 60/3/2 63/3/2
f 61/3/2 59/3/2 64/3/2
f 64/3/2 59/3/2 65/3/2
f 66/1/2 67/1/2 69/1/2
f 69/1/2 67/1/2 70/1/2
f 70/1/2 67/1/2 71/1/2
f 67/5/2 68/5/2 72/5/2
f 71/1/2 67/1/2 72/1/2
f 69/2/2 70/2/2 73/2/2
f 70/1/2 71/1/2 74/1/2
f 73/2/2 70/2/2 74/2/2
f 73/1/2 74/1/2 75/1/2
f 71/5/2 72/5/2 76/5/2
f 75/1/2 74/1/2 76/1/2
f 74/1/2 71/1/2 76/1/2
f 75/5/2 76/5/2 77/5/2
f 72/5/2 68/5/2 78/5/2
f 77/5/2 76/5/2 78/5/2
f 76/5/2 72/5/2 78/5/2
f 79/1/2 80/1/2 81/1/2
f 81/1/2 80/1/2 82/1/2
f 90/2/3 85/2/3 84/2/3
f 90/1/3 86/1/3 85/1/3
f 91/5/3 87/5/3 86/5/3
f 91/1/3 86/1/3 90/1/3
f 92/5/3 87/5/3 91/5/3
f 93/5/3 87/5/3 92/5/3
f 94/1/3 84/1/3 83/1/3
f 94/2/3 90/2/3 84/2/3
f 95/8/3 91/8/3 90/8/3
f 95/2/3 90/2/3 94/2/3
f 96/7/3 92/7/3 91/7/3
f 96/8/3 91/8/3 95/8/3
f 97/1/3 93/1/3 92/1/3
f 97/7/3 92/7/3 96/7/3
f 98/5/3 87/5/3 93/5/3
f 98/1/3 93/1/3 97/1/3
f 99/5/3 87/5/3 98/5/3
f 100/1/3 94/1/3 83/1/3
f 100/1/3 95/1/3 94/1/3
f 101/1/3 95/1/3 100/1/3
f 102/8/3 97/8/3 96/8/3
f 102/1/3 95/1/3 101/1/3
f 102/8/3 96/8/3 95/8/3
f 103/1/3 99/1/3 98/1/3
f 103/8/3 97/8/3 102/8/3
f 103/1/3 98/1/3 97/1/3
f 104/1/3 99/1/3 103/1/3
f 105/5/3 87/5/3 99/5/3
f 105/1/3 99/1/3 104/1/3
f 106/1/3 104/1/3 103/1/3
f 106/1/3 102/1/3 101/1/3
f 106/5/3 105/5/3 104/5/3
f 106/1/3 103/1/3 102/1/3
f 107/5/3 87/5/3 105/5/3
f 107/5/3 105/5/3 106/5/3
f 108/4/3 101/4/3 100/4/3
f 108/1/3 100/1/3 83/1/3
f 109/1/3 107/1/3 106/1/3
f 109/4/3 101/4/3 108/4/3
f 109/1/3 106/1/3 101/1/3
f 110/1/3 107/1/3 109/1/3
f 111/1/3 107/1/3 110/1/3
f 112/1/3 107/1/3 111/1/3
f 113/1/3 107/1/3 112/1/3
f 114/5/3 87/5/3 107/5/3
f 114/1/3 107/1/3 113/1/3
f 115/1/3 109/1/3 108/1/3
f 115/1/3 110/1/3 109/1/3
f 116/8/3 111/8/3 110/8/3
f 116/1/3 110/1/3 115/1/3
f 117/7/3 112/7/3 111/7/3
f 117/8/3 111/8/3 116/8/3
f 118/1/3 113/1/3 112/1/3
f 118/7/3 112/7/3 117/7/3
f 119/3/3 89/3/3 88/3/3
f 120/3/3 89/3/3 119/3/3
f 121/8/3 117/8/3 116/8/3
f 121/2/3 116/2/3 115/2/3
f 121/8/3 118/8/3 117/8/3
f 122/8/3 118/8/3 121/8/3
f 123/1/3 113/1/3 118/1/3
f 123/8/3 118/8/3 122/8/3
f 124/5/3 114/5/3 113/5/3
f 124/1/3 113/1/3 123/1/3
f 125/1/3 108/1/3 83/1/3
f 125/1/3 115/1/3 108/1/3
f 126/2/3 121/2/3 115/2/3
f 126/1/3 115/1/3 125/1/3
f 127/1/3 122/1/3 121/1/3
f 127/2/3 121/2/3 126/2/3
f 128/5/3 124/5/3 123/5/3
f 128/1/3 122/1/3 127/1/3
f 128/5/3 123/5/3 122/5/3
f 129/5/3 114/5/3 124/5/3
f 129/5/3 124/5/3 128/5/3
f 129/5/3 87/5/3 114/5/3
f 132/1/3 131/1/3 130/1/3
f 133/1/3 131/1/3 132/1/3
f 137/3/3 133/3/3 132/3/3
f 138/3/3 133/3/3 137/3/3
f 139/6/3 135/6/3 134/6/3
f 140/1/3 136/1/3 135/1/3
f 140/6/3 135/6/3 139/6/3
f 141/1/3 136/1/3 140/1/3
f 147/1/3 143/1/3 142/1/3
f 148/1/3 143/1/3 147/1/3
f 149/6/3 145/6/3 144/6/3
f 150/1/3 146/1/3 145/1/3
f 150/6/3 145/6/3 149/6/3
f 151/1/3 146/1/3 150/1/3
f 154/3/3 153/3/3 152/3/3
f 155/3/3 153/3/3 154/3/3
f 156/1/3 155/1/3 154/1/3
f 157/1/3 155/1/3 156/1/3
f 158/1/4 159/1/4 160/1/4
f 160/1/4 159/1/4 161/1/4
f 160/3/4 161/3/4 165/3/4
f 165/3/4 161/3/4 166/3/4
f 162/6/4 163/6/4 167/6/4
f 163/1/4 164/1/4 168/1/4
f 167/6/4 163/6/4 168/6/4
f 168/1/4 164/1/4 169/1/4
f 170/1/4 171/1/4 175/1/4
f 175/1/4 171/1/4 176/1/4
f 172/6/4 173/6/4 177/6/4
f 173/1/4 174/1/4 178/1/4
f 177/6/4 173/6/4 178/6/4
f 178/1/4 174/1/4 179/1/4
f 180/3/4 181/3/4 182/3/4
f 182/3/4 181/3/4 183/3/4
f 182/1/4 183/1/4 184/1/4
f 184/1/4 183/1/4 185/1/4
f 186/3/4 187/3/4 188/3/4
f 188/3/4 187/3/4 189/3/4
f 190/5/4 191/5/4 192/5/4
f 192/5/4 191/5/4 193/5/4
f 198/6/5 195/6/5 194/6/5
f 199/6/5 195/6/5 198/6/5
f 200/6/5 197/6/5 196/6/5
f 201/6/5 197/6/5 200/6/5
f 204/3/5 203/3/5 202/3/5
f 205/3/5 203/3/5 204/3/5
f 206/3/5 203/3/5 205/3/5
f 207/3/5 203/3/5 206/3/5
f 209/3/5 206/3/5 205/3/5
f 210/3/5 206/3/5 209/3/5
f 212/3/5 209/3/5 208/3/5
f 212/3/5 211/3/5 210/3/5
f 212/3/5 210/3/5 209/3/5
f 213/3/5 211/3/5 212/3/5
f 220/1/5 215/1/5 214/1/5
f 221/3/5 216/3/5 215/3/5
f 221/1/5 215/1/5 220/1/5
f 222/3/5 216/3/5 221/3/5
f 223/3/5 218/3/5 217/3/5
f 224/1/5 219/1/5 218/1/5
f 224/3/5 218/3/5 223/3/5
f 225/1/5 219/1/5 224/1/5
f 228/1/5 227/1/5 226/1/5
f 229/1/5 227/1/5 228/1/5
f 230/1/5 228/1/5 226/1/5
f 231/1/5 228/1/5 230/1/5
f 232/1/5 228/1/5 231/1/5
f 233/1/5 227/1/5 229/1/5
f 234/1/5 227/1/5 233/1/5
f 235/1/5 227/1/5 234/1/5
f 236/1/5 232/1/5 231/1/5
f 236/5/5 231/5/5 230/5/5
f 236/1/5 233/1/5 232/1/5
f 236/1/5 234/1/5 233/1/5
f 237/5/5 235/5/5 234/5/5
f 237/1/5 234/1/5 236/1/5
f 238/5/5 236/5/5 230/5/5
f 238/5/5 237/5/5 236/5/5
f 239/5/5 235/5/5 237/5/5
f 239/5/5 237/5/5 238/5/5
f 240/3/6 241/3/6 244/3/6
f 244/3/6 241/3/6 245/3/6
f 245/3/6 241/3/6 246/3/6
f 246/3/6 241/3/6 247/3/6
f 242/1/6 243/1/6 250/1/6
f 243/3/6 244/3/6 251/3/6
f 250/1/6 243/1/6 251/1/6
f 244/3/6 245/3/6 251/3/6
f 251/3/6 245/3/6 252/3/6
f 252/3/6 245/3/6 253/3/6
f 246/3/6 247/3/6 254/3/6
f 247/3/6 248/3/6 254/3/6
f 254/3/6 248/3/6 255/3/6
f 248/1/6 249/1/6 256/1/6
f 255/3/6 248/3/6 256/3/6
f 256/1/6 249/1/6 257/1/6
f 254/3/6 255/3/6 258/3/6
f 252/3/6 253/3/6 258/3/6
f 253/3/6 254/3/6 258/3/6
f 258/3/6 255/3/6 259/3/6
f 260/5/6 261/5/6 262/5/6
f 262/5/6 261/5/6 263/5/6
