# MagicaVoxel @ Ephtracy

# group
o 

# material
mtllib sword_hiroppe.vox.mtl
usemtl palette

# normals
vn -1 0 0
vn 1 0 0
vn 0 0 1
vn 0 0 -1
vn 0 -1 0
vn 0 1 0

# texcoords
vt 0.0175781 0.5
vt 0.283203 0.5
vt 0.564453 0.5
vt 0.693359 0.5
vt 0.751953 0.5
vt 0.982422 0.5

# verts
v -0.9 2.5 0.4
v -0.9 2.5 -0.3
v -0.9 2.8 0.4
v -0.9 2.8 -0.3
v -0.7 2.8 0.4
v -0.7 2.8 -0.3
v -0.7 2.9 0.4
v -0.7 2.9 -0.3
v -0.4 2.6 0.4
v -0.4 2.6 -0.3
v -0.4 2.8 0.4
v -0.4 2.8 -0.3
v -0.2 0.4 0.4
v -0.2 0.4 -0.3
v -0.2 2.1 0.4
v -0.2 2.1 -0.3
v -0.2 2.2 0.4
v -0.2 2.2 0.1
v -0.2 2.2 -0.3
v -0.2 2.3 0.4
v -0.2 2.3 0.1
v -0.2 2.3 -0.3
v -0.2 2.6 0.4
v -0.2 2.6 -0.3
v -0.2 2.9 0.4
v -0.2 2.9 -0.3
v -0.2 3.1 0.4
v -0.2 3.1 -0.3
v -0.2 3.8 0.4
v -0.2 3.8 -0.3
v -0.2 4 0.4
v -0.2 4 -0.3
v 0 0.3 0.4
v 0 0.3 -0.3
v 0 0.4 0.4
v 0 0.4 -0.3
v 0 2.2 0.4
v 0 2.2 0.1
v 0 2.3 0.4
v 0 2.3 0.1
v 0 2.8 0.4
v 0 2.8 -0.3
v 0 2.9 0.4
v 0 2.9 -0.3
v 0 3.1 0.4
v 0 3.1 -0.3
v 0 3.8 0.4
v 0 3.8 -0.3
v 0.5 2.8 0.4
v 0.5 2.8 -0.3
v 0.5 2.9 0.4
v 0.5 2.9 -0.3
v 0.7 2.6 0.4
v 0.7 2.6 -0.3
v 0.7 2.8 0.4
v 0.7 2.8 -0.3
v 0.8 2.5 0.4
v 0.8 2.5 -0.3
v 0.8 2.6 0.4
v 0.8 2.6 -0.3
v -0.7 2.5 0.4
v -0.7 2.5 -0.3
v -0.7 2.6 0.4
v -0.7 2.6 -0.3
v -0.6 2.6 0.4
v -0.6 2.6 -0.3
v -0.6 2.8 0.4
v -0.6 2.8 -0.3
v -0.4 2.8 0.4
v -0.4 2.8 -0.3
v -0.4 2.9 0.4
v -0.4 2.9 -0.3
v 0.1 0.3 0.4
v 0.1 0.3 -0.3
v 0.1 0.4 0.4
v 0.1 0.4 -0.3
v 0.1 2.2 0.4
v 0.1 2.2 0.1
v 0.1 2.3 0.4
v 0.1 2.3 0.1
v 0.1 2.8 0.4
v 0.1 2.8 -0.3
v 0.1 2.9 0.4
v 0.1 2.9 -0.3
v 0.1 3.1 0.4
v 0.1 3.1 -0.3
v 0.1 3.8 0.4
v 0.1 3.8 -0.3
v 0.3 0.4 0.4
v 0.3 0.4 -0.3
v 0.3 2.1 0.4
v 0.3 2.1 -0.3
v 0.3 2.2 0.4
v 0.3 2.2 0.1
v 0.3 2.2 -0.3
v 0.3 2.3 0.4
v 0.3 2.3 0.1
v 0.3 2.3 -0.3
v 0.3 2.6 0.4
v 0.3 2.6 -0.3
v 0.3 2.9 0.4
v 0.3 2.9 -0.3
v 0.3 3.1 0.4
v 0.3 3.1 -0.3
v 0.3 3.8 0.4
v 0.3 3.8 -0.3
v 0.3 4 0.4
v 0.3 4 -0.3
v 0.5 2.6 0.4
v 0.5 2.6 -0.3
v 0.5 2.8 0.4
v 0.5 2.8 -0.3
v 0.8 2.8 0.4
v 0.8 2.8 -0.3
v 0.8 2.9 0.4
v 0.8 2.9 -0.3
v 1 2.5 0.4
v 1 2.5 -0.3
v 1 2.8 0.4
v 1 2.8 -0.3
v -0.9 2.5 0.4
v -0.9 2.8 0.4
v -0.7 2.5 0.4
v -0.7 2.6 0.4
v -0.7 2.8 0.4
v -0.7 2.9 0.4
v -0.6 2.6 0.4
v -0.6 2.8 0.4
v -0.4 2.6 0.4
v -0.4 2.8 0.4
v -0.4 2.9 0.4
v -0.2 0.4 0.4
v -0.2 2.1 0.4
v -0.2 2.2 0.4
v -0.2 2.3 0.4
v -0.2 2.6 0.4
v -0.2 2.9 0.4
v -0.2 3.1 0.4
v -0.2 3.8 0.4
v -0.2 4 0.4
v 0 0.3 0.4
v 0 0.4 0.4
v 0 1 0.4
v 0 1.5 0.4
v 0 1.8 0.4
v 0 2.1 0.4
v 0 2.2 0.4
v 0 2.3 0.4
v 0 2.6 0.4
v 0 2.8 0.4
v 0 2.9 0.4
v 0 3.1 0.4
v 0 3.8 0.4
v 0.1 0.3 0.4
v 0.1 0.4 0.4
v 0.1 1 0.4
v 0.1 1.5 0.4
v 0.1 1.8 0.4
v 0.1 2.1 0.4
v 0.1 2.2 0.4
v 0.1 2.3 0.4
v 0.1 2.6 0.4
v 0.1 2.8 0.4
v 0.1 2.9 0.4
v 0.1 3.1 0.4
v 0.1 3.8 0.4
v 0.3 0.4 0.4
v 0.3 2.1 0.4
v 0.3 2.2 0.4
v 0.3 2.3 0.4
v 0.3 2.6 0.4
v 0.3 2.9 0.4
v 0.3 3.1 0.4
v 0.3 3.8 0.4
v 0.3 4 0.4
v 0.5 2.6 0.4
v 0.5 2.8 0.4
v 0.5 2.9 0.4
v 0.7 2.6 0.4
v 0.7 2.8 0.4
v 0.8 2.5 0.4
v 0.8 2.6 0.4
v 0.8 2.8 0.4
v 0.8 2.9 0.4
v 1 2.5 0.4
v 1 2.8 0.4
v -0.2 2.2 0.1
v -0.2 2.3 0.1
v 0 2.2 0.1
v 0 2.3 0.1
v 0.1 2.2 0.1
v 0.1 2.3 0.1
v 0.3 2.2 0.1
v 0.3 2.3 0.1
v -0.9 2.5 -0.3
v -0.9 2.8 -0.3
v -0.7 2.5 -0.3
v -0.7 2.6 -0.3
v -0.7 2.8 -0.3
v -0.7 2.9 -0.3
v -0.6 2.6 -0.3
v -0.6 2.8 -0.3
v -0.4 2.6 -0.3
v -0.4 2.8 -0.3
v -0.4 2.9 -0.3
v -0.2 0.4 -0.3
v -0.2 2.1 -0.3
v -0.2 2.2 -0.3
v -0.2 2.3 -0.3
v -0.2 2.6 -0.3
v -0.2 2.9 -0.3
v -0.2 3.1 -0.3
v -0.2 3.8 -0.3
v -0.2 4 -0.3
v 0 0.3 -0.3
v 0 0.4 -0.3
v 0 1 -0.3
v 0 1.5 -0.3
v 0 1.8 -0.3
v 0 2.1 -0.3
v 0 2.2 -0.3
v 0 2.3 -0.3
v 0 2.6 -0.3
v 0 2.8 -0.3
v 0 2.9 -0.3
v 0 3.1 -0.3
v 0 3.8 -0.3
v 0.1 0.3 -0.3
v 0.1 0.4 -0.3
v 0.1 1 -0.3
v 0.1 1.5 -0.3
v 0.1 1.8 -0.3
v 0.1 2.1 -0.3
v 0.1 2.2 -0.3
v 0.1 2.3 -0.3
v 0.1 2.6 -0.3
v 0.1 2.8 -0.3
v 0.1 2.9 -0.3
v 0.1 3.1 -0.3
v 0.1 3.8 -0.3
v 0.3 0.4 -0.3
v 0.3 2.1 -0.3
v 0.3 2.2 -0.3
v 0.3 2.3 -0.3
v 0.3 2.6 -0.3
v 0.3 2.9 -0.3
v 0.3 3.1 -0.3
v 0.3 3.8 -0.3
v 0.3 4 -0.3
v 0.5 2.6 -0.3
v 0.5 2.8 -0.3
v 0.5 2.9 -0.3
v 0.7 2.6 -0.3
v 0.7 2.8 -0.3
v 0.8 2.5 -0.3
v 0.8 2.6 -0.3
v 0.8 2.8 -0.3
v 0.8 2.9 -0.3
v 1 2.5 -0.3
v 1 2.8 -0.3
v 0 0.3 0.4
v 0.1 0.3 0.4
v 0 0.3 -0.3
v 0.1 0.3 -0.3
v -0.2 0.4 0.4
v 0 0.4 0.4
v 0.1 0.4 0.4
v 0.3 0.4 0.4
v -0.2 0.4 -0.3
v 0 0.4 -0.3
v 0.1 0.4 -0.3
v 0.3 0.4 -0.3
v -0.2 2.3 0.4
v 0 2.3 0.4
v 0.1 2.3 0.4
v 0.3 2.3 0.4
v -0.2 2.3 0.1
v 0 2.3 0.1
v 0.1 2.3 0.1
v 0.3 2.3 0.1
v -0.9 2.5 0.4
v -0.7 2.5 0.4
v 0.8 2.5 0.4
v 1 2.5 0.4
v -0.9 2.5 -0.3
v -0.7 2.5 -0.3
v 0.8 2.5 -0.3
v 1 2.5 -0.3
v -0.7 2.6 0.4
v -0.6 2.6 0.4
v -0.4 2.6 0.4
v -0.2 2.6 0.4
v 0.3 2.6 0.4
v 0.5 2.6 0.4
v 0.7 2.6 0.4
v 0.8 2.6 0.4
v -0.7 2.6 -0.3
v -0.6 2.6 -0.3
v -0.4 2.6 -0.3
v -0.2 2.6 -0.3
v 0.3 2.6 -0.3
v 0.5 2.6 -0.3
v 0.7 2.6 -0.3
v 0.8 2.6 -0.3
v -0.6 2.8 0.4
v -0.4 2.8 0.4
v 0.5 2.8 0.4
v 0.7 2.8 0.4
v -0.6 2.8 -0.3
v -0.4 2.8 -0.3
v 0.5 2.8 -0.3
v 0.7 2.8 -0.3
v -0.2 2.9 0.4
v 0 2.9 0.4
v 0.1 2.9 0.4
v 0.3 2.9 0.4
v -0.2 2.9 -0.3
v 0 2.9 -0.3
v 0.1 2.9 -0.3
v 0.3 2.9 -0.3
v -0.2 3.8 0.4
v 0 3.8 0.4
v 0.1 3.8 0.4
v 0.3 3.8 0.4
v -0.2 3.8 -0.3
v 0 3.8 -0.3
v 0.1 3.8 -0.3
v 0.3 3.8 -0.3
v -0.2 2.2 0.4
v 0 2.2 0.4
v 0.1 2.2 0.4
v 0.3 2.2 0.4
v -0.2 2.2 0.1
v 0 2.2 0.1
v 0.1 2.2 0.1
v 0.3 2.2 0.1
v -0.9 2.8 0.4
v -0.7 2.8 0.4
v -0.4 2.8 0.4
v 0 2.8 0.4
v 0.1 2.8 0.4
v 0.5 2.8 0.4
v 0.8 2.8 0.4
v 1 2.8 0.4
v -0.9 2.8 -0.3
v -0.7 2.8 -0.3
v -0.4 2.8 -0.3
v 0 2.8 -0.3
v 0.1 2.8 -0.3
v 0.5 2.8 -0.3
v 0.8 2.8 -0.3
v 1 2.8 -0.3
v -0.7 2.9 0.4
v -0.4 2.9 0.4
v 0.5 2.9 0.4
v 0.8 2.9 0.4
v -0.7 2.9 -0.3
v -0.4 2.9 -0.3
v 0.5 2.9 -0.3
v 0.8 2.9 -0.3
v -0.2 3.1 0.4
v 0 3.1 0.4
v 0.1 3.1 0.4
v 0.3 3.1 0.4
v -0.2 3.1 -0.3
v 0 3.1 -0.3
v 0.1 3.1 -0.3
v 0.3 3.1 -0.3
v -0.2 4 0.4
v 0.3 4 0.4
v -0.2 4 -0.3
v 0.3 4 -0.3

# faces
f 3/4/1 2/4/1 1/4/1
f 4/4/1 2/4/1 3/4/1
f 7/4/1 6/4/1 5/4/1
f 8/4/1 6/4/1 7/4/1
f 11/4/1 10/4/1 9/4/1
f 12/4/1 10/4/1 11/4/1
f 15/6/1 14/6/1 13/6/1
f 16/6/1 14/6/1 15/6/1
f 17/5/1 16/5/1 15/5/1
f 18/5/1 16/5/1 17/5/1
f 19/5/1 16/5/1 18/5/1
f 21/6/1 19/6/1 18/6/1
f 22/6/1 19/6/1 21/6/1
f 23/4/1 21/4/1 20/4/1
f 23/4/1 22/4/1 21/4/1
f 24/4/1 22/4/1 23/4/1
f 27/4/1 26/4/1 25/4/1
f 28/4/1 26/4/1 27/4/1
f 31/4/1 30/4/1 29/4/1
f 32/4/1 30/4/1 31/4/1
f 35/6/1 34/6/1 33/6/1
f 36/6/1 34/6/1 35/6/1
f 39/5/1 38/5/1 37/5/1
f 40/5/1 38/5/1 39/5/1
f 43/4/1 42/4/1 41/4/1
f 44/4/1 42/4/1 43/4/1
f 47/6/1 46/6/1 45/6/1
f 48/6/1 46/6/1 47/6/1
f 51/4/1 50/4/1 49/4/1
f 52/4/1 50/4/1 51/4/1
f 55/4/1 54/4/1 53/4/1
f 56/4/1 54/4/1 55/4/1
f 59/4/1 58/4/1 57/4/1
f 60/4/1 58/4/1 59/4/1
f 61/4/2 62/4/2 63/4/2
f 63/4/2 62/4/2 64/4/2
f 65/4/2 66/4/2 67/4/2
f 67/4/2 66/4/2 68/4/2
f 69/4/2 70/4/2 71/4/2
f 71/4/2 70/4/2 72/4/2
f 73/6/2 74/6/2 75/6/2
f 75/6/2 74/6/2 76/6/2
f 77/5/2 78/5/2 79/5/2
f 79/5/2 78/5/2 80/5/2
f 81/4/2 82/4/2 83/4/2
f 83/4/2 82/4/2 84/4/2
f 85/6/2 86/6/2 87/6/2
f 87/6/2 86/6/2 88/6/2
f 89/6/2 90/6/2 91/6/2
f 91/6/2 90/6/2 92/6/2
f 91/5/2 92/5/2 93/5/2
f 93/5/2 92/5/2 94/5/2
f 94/5/2 92/5/2 95/5/2
f 94/6/2 95/6/2 97/6/2
f 97/6/2 95/6/2 98/6/2
f 96/4/2 97/4/2 99/4/2
f 97/4/2 98/4/2 99/4/2
f 99/4/2 98/4/2 100/4/2
f 101/4/2 102/4/2 103/4/2
f 103/4/2 102/4/2 104/4/2
f 105/4/2 106/4/2 107/4/2
f 107/4/2 106/4/2 108/4/2
f 109/4/2 110/4/2 111/4/2
f 111/4/2 110/4/2 112/4/2
f 113/4/2 114/4/2 115/4/2
f 115/4/2 114/4/2 116/4/2
f 117/4/2 118/4/2 119/4/2
f 119/4/2 118/4/2 120/4/2
f 123/4/3 122/4/3 121/4/3
f 124/4/3 122/4/3 123/4/3
f 125/4/3 122/4/3 124/4/3
f 127/4/3 126/4/3 125/4/3
f 127/4/3 125/4/3 124/4/3
f 128/4/3 126/4/3 127/4/3
f 130/4/3 126/4/3 128/4/3
f 131/4/3 126/4/3 130/4/3
f 136/4/3 130/4/3 129/4/3
f 142/6/3 133/6/3 132/6/3
f 143/6/3 133/6/3 142/6/3
f 144/6/3 133/6/3 143/6/3
f 145/6/3 133/6/3 144/6/3
f 146/5/3 134/5/3 133/5/3
f 146/6/3 133/6/3 145/6/3
f 147/5/3 134/5/3 146/5/3
f 148/4/3 136/4/3 135/4/3
f 149/4/3 130/4/3 136/4/3
f 149/4/3 136/4/3 148/4/3
f 150/4/3 130/4/3 149/4/3
f 151/4/3 138/4/3 137/4/3
f 152/4/3 138/4/3 151/4/3
f 153/4/3 140/4/3 139/4/3
f 154/6/3 142/6/3 141/6/3
f 154/6/3 143/6/3 142/6/3
f 155/6/3 143/6/3 154/6/3
f 156/2/3 144/2/3 143/2/3
f 156/6/3 143/6/3 155/6/3
f 157/3/3 145/3/3 144/3/3
f 157/2/3 144/2/3 156/2/3
f 158/5/3 147/5/3 146/5/3
f 158/3/3 145/3/3 157/3/3
f 158/5/3 148/5/3 147/5/3
f 158/5/3 146/5/3 145/5/3
f 159/5/3 148/5/3 158/5/3
f 160/5/3 148/5/3 159/5/3
f 161/1/3 149/1/3 148/1/3
f 161/5/3 148/5/3 160/5/3
f 162/4/3 152/4/3 151/4/3
f 162/1/3 149/1/3 161/1/3
f 162/4/3 150/4/3 149/4/3
f 162/4/3 151/4/3 150/4/3
f 163/4/3 152/4/3 162/4/3
f 164/4/3 152/4/3 163/4/3
f 165/6/3 153/6/3 152/6/3
f 165/4/3 152/4/3 164/4/3
f 166/4/3 140/4/3 153/4/3
f 166/6/3 153/6/3 165/6/3
f 167/6/3 156/6/3 155/6/3
f 167/6/3 157/6/3 156/6/3
f 167/6/3 159/6/3 158/6/3
f 167/6/3 158/6/3 157/6/3
f 168/5/3 160/5/3 159/5/3
f 168/6/3 159/6/3 167/6/3
f 169/5/3 160/5/3 168/5/3
f 170/4/3 163/4/3 162/4/3
f 170/4/3 162/4/3 161/4/3
f 171/4/3 163/4/3 170/4/3
f 172/4/3 165/4/3 164/4/3
f 173/4/3 165/4/3 172/4/3
f 174/4/3 140/4/3 166/4/3
f 175/4/3 140/4/3 174/4/3
f 176/4/3 163/4/3 171/4/3
f 177/4/3 163/4/3 176/4/3
f 180/4/3 178/4/3 177/4/3
f 182/4/3 180/4/3 179/4/3
f 183/4/3 178/4/3 180/4/3
f 183/4/3 180/4/3 182/4/3
f 184/4/3 178/4/3 183/4/3
f 185/4/3 182/4/3 181/4/3
f 185/4/3 183/4/3 182/4/3
f 186/4/3 183/4/3 185/4/3
f 189/6/3 188/6/3 187/6/3
f 190/6/3 188/6/3 189/6/3
f 193/6/3 192/6/3 191/6/3
f 194/6/3 192/6/3 193/6/3
f 195/4/4 196/4/4 197/4/4
f 197/4/4 196/4/4 198/4/4
f 198/4/4 196/4/4 199/4/4
f 199/4/4 200/4/4 201/4/4
f 198/4/4 199/4/4 201/4/4
f 201/4/4 200/4/4 202/4/4
f 202/4/4 200/4/4 204/4/4
f 204/4/4 200/4/4 205/4/4
f 203/4/4 204/4/4 210/4/4
f 206/6/4 207/6/4 216/6/4
f 216/6/4 207/6/4 217/6/4
f 217/6/4 207/6/4 218/6/4
f 218/6/4 207/6/4 219/6/4
f 207/5/4 208/5/4 220/5/4
f 219/6/4 207/6/4 220/6/4
f 208/6/4 209/6/4 221/6/4
f 220/5/4 208/5/4 221/5/4
f 209/4/4 210/4/4 222/4/4
f 221/6/4 209/6/4 222/6/4
f 210/4/4 204/4/4 223/4/4
f 222/4/4 210/4/4 223/4/4
f 223/4/4 204/4/4 224/4/4
f 211/4/4 212/4/4 225/4/4
f 225/4/4 212/4/4 226/4/4
f 213/4/4 214/4/4 227/4/4
f 215/6/4 216/6/4 228/6/4
f 216/6/4 217/6/4 228/6/4
f 228/6/4 217/6/4 229/6/4
f 217/2/4 218/2/4 230/2/4
f 229/6/4 217/6/4 230/6/4
f 218/3/4 219/3/4 231/3/4
f 230/2/4 218/2/4 231/2/4
f 219/5/4 220/5/4 232/5/4
f 231/3/4 219/3/4 232/3/4
f 220/5/4 221/5/4 232/5/4
f 221/5/4 222/5/4 232/5/4
f 232/5/4 222/5/4 233/5/4
f 233/5/4 222/5/4 234/5/4
f 222/1/4 223/1/4 235/1/4
f 234/5/4 222/5/4 235/5/4
f 225/4/4 226/4/4 236/4/4
f 235/1/4 223/1/4 236/1/4
f 223/4/4 224/4/4 236/4/4
f 224/4/4 225/4/4 236/4/4
f 236/4/4 226/4/4 237/4/4
f 237/4/4 226/4/4 238/4/4
f 226/6/4 227/6/4 239/6/4
f 238/4/4 226/4/4 239/4/4
f 227/4/4 214/4/4 240/4/4
f 239/6/4 227/6/4 240/6/4
f 230/6/4 231/6/4 241/6/4
f 229/6/4 230/6/4 241/6/4
f 232/6/4 233/6/4 241/6/4
f 231/6/4 232/6/4 241/6/4
f 233/5/4 234/5/4 242/5/4
f 241/6/4 233/6/4 242/6/4
f 234/6/4 235/6/4 243/6/4
f 242/5/4 234/5/4 243/5/4
f 236/4/4 237/4/4 244/4/4
f 243/6/4 235/6/4 244/6/4
f 235/4/4 236/4/4 244/4/4
f 244/4/4 237/4/4 245/4/4
f 238/4/4 239/4/4 246/4/4
f 246/4/4 239/4/4 247/4/4
f 240/4/4 214/4/4 248/4/4
f 248/4/4 214/4/4 249/4/4
f 245/4/4 237/4/4 250/4/4
f 250/4/4 237/4/4 251/4/4
f 251/4/4 252/4/4 254/4/4
f 253/4/4 254/4/4 256/4/4
f 254/4/4 252/4/4 257/4/4
f 256/4/4 254/4/4 257/4/4
f 257/4/4 252/4/4 258/4/4
f 255/4/4 256/4/4 259/4/4
f 256/4/4 257/4/4 259/4/4
f 259/4/4 257/4/4 260/4/4
f 263/6/5 262/6/5 261/6/5
f 264/6/5 262/6/5 263/6/5
f 269/6/5 266/6/5 265/6/5
f 270/6/5 266/6/5 269/6/5
f 271/6/5 268/6/5 267/6/5
f 272/6/5 268/6/5 271/6/5
f 277/4/5 274/4/5 273/4/5
f 278/4/5 274/4/5 277/4/5
f 279/4/5 276/4/5 275/4/5
f 280/4/5 276/4/5 279/4/5
f 285/4/5 282/4/5 281/4/5
f 286/4/5 282/4/5 285/4/5
f 287/4/5 284/4/5 283/4/5
f 288/4/5 284/4/5 287/4/5
f 297/4/5 290/4/5 289/4/5
f 298/4/5 290/4/5 297/4/5
f 299/4/5 292/4/5 291/4/5
f 300/4/5 292/4/5 299/4/5
f 301/4/5 294/4/5 293/4/5
f 302/4/5 294/4/5 301/4/5
f 303/4/5 296/4/5 295/4/5
f 304/4/5 296/4/5 303/4/5
f 309/4/5 306/4/5 305/4/5
f 310/4/5 306/4/5 309/4/5
f 311/4/5 308/4/5 307/4/5
f 312/4/5 308/4/5 311/4/5
f 317/4/5 314/4/5 313/4/5
f 318/4/5 314/4/5 317/4/5
f 319/4/5 316/4/5 315/4/5
f 320/4/5 316/4/5 319/4/5
f 325/4/5 322/4/5 321/4/5
f 326/4/5 322/4/5 325/4/5
f 327/4/5 324/4/5 323/4/5
f 328/4/5 324/4/5 327/4/5
f 329/5/6 330/5/6 333/5/6
f 333/5/6 330/5/6 334/5/6
f 331/5/6 332/5/6 335/5/6
f 335/5/6 332/5/6 336/5/6
f 337/4/6 338/4/6 345/4/6
f 345/4/6 338/4/6 346/4/6
f 339/4/6 340/4/6 347/4/6
f 347/4/6 340/4/6 348/4/6
f 341/4/6 342/4/6 349/4/6
f 349/4/6 342/4/6 350/4/6
f 343/4/6 344/4/6 351/4/6
f 351/4/6 344/4/6 352/4/6
f 353/4/6 354/4/6 357/4/6
f 357/4/6 354/4/6 358/4/6
f 355/4/6 356/4/6 359/4/6
f 359/4/6 356/4/6 360/4/6
f 361/4/6 362/4/6 365/4/6
f 365/4/6 362/4/6 366/4/6
f 363/4/6 364/4/6 367/4/6
f 367/4/6 364/4/6 368/4/6
f 369/4/6 370/4/6 371/4/6
f 371/4/6 370/4/6 372/4/6
